<svg preserveAspectRatio="none" viewBox="0 0 1440 689" fill="none" xmlns="http://www.w3.org/2000/svg">
<g clip-path="url(#clip0)">
<path opacity="0.5" d="M792.5 65.3604C665.7 0.560349 136.667 -3.97298 -112 1.86035V770.86L1547.5 755.36V82.8604C1494.17 72.527 1372.3 50.9604 1311.5 47.3604C1235.5 42.8604 1096 136 1058 145.5C1020 155 951 146.36 792.5 65.3604Z" fill="#D3D8E0"/>
<path opacity="0.5" d="M829.5 192.411C702.7 134.324 173.667 130.261 -75 135.49V824.822L1584.5 810.928V208.098C1531.17 198.835 1409.3 179.503 1348.5 176.276C1272.5 172.242 1131 238.306 1093 246.822C1055 255.338 988 265.02 829.5 192.411Z" fill="#747FA3"/>
<path opacity="0.5" d="M829.5 286.911C702.7 229.497 173.667 225.48 -75 230.649V912L1584.5 898.267V302.417C1531.17 293.261 1409.3 274.152 1348.5 270.963C1272.5 266.976 1131 340.223 1093 348.64C1055 357.057 988 358.679 829.5 286.911Z" fill="#2F0871"/>
</g>
<defs>
<clipPath id="clip0">
<rect width="1440" height="689" fill="white"/>
</clipPath>
</defs>
</svg>
