<?xml version="1.0" encoding="UTF-8"?>
<svg width="280px" height="440px" viewBox="0 0 280 440" version="1.1" xmlns="http://www.w3.org/2000/svg" xmlns:xlink="http://www.w3.org/1999/xlink">
    <title>Desktop HD</title>
    <defs>
        <path d="M562.310218,197.793065 L732.310218,248.793065 C738.654978,250.696493 743,256.536336 743,263.16046 L743,531.83954 C743,540.123811 736.284271,546.83954 728,546.83954 C726.540132,546.83954 725.088082,546.626425 723.689782,546.206935 L553.689782,495.206935 C547.345022,493.303507 543,487.463664 543,480.83954 L543,212.16046 C543,203.876189 549.715729,197.16046 558,197.16046 C559.459868,197.16046 560.911918,197.373575 562.310218,197.793065 Z" id="path-1"></path>
        <mask id="mask-2" maskContentUnits="userSpaceOnUse" maskUnits="objectBoundingBox" x="0" y="0" width="200" height="360" fill="white">
            <use xlink:href="#path-1"></use>
        </mask>
        <linearGradient x1="50%" y1="0%" x2="50%" y2="100%" id="linearGradient-3">
            <stop stop-color="#5F187A" offset="0%"></stop>
            <stop stop-color="#FFFFFF" offset="100%"></stop>
        </linearGradient>
    </defs>
    <g id="Page-1" stroke="none" stroke-width="1" fill="none" fill-rule="evenodd">
        <g id="Desktop-HD" transform="translate(-463.000000, -192.000000)">
            <use id="Rectangle" stroke="#FFFFFF" mask="url(#mask-2)" stroke-width="12" stroke-linejoin="round" stroke-dasharray="15,15" xlink:href="#path-1"></use>
            <path d="M518,240.16046 C519.167895,240.16046 520.329534,240.330952 521.448175,240.666544 L521.448175,240.666544 L691.448175,291.666544 C693.986078,292.427915 696.124035,293.97657 697.627515,295.997293 C699.130996,298.018017 700,300.51081 700,303.16046 L700,303.16046 L700,571.83954 C700,575.153249 698.656854,578.153249 696.485281,580.324822 C694.313708,582.496394 691.313708,583.83954 688,583.83954 C686.832105,583.83954 685.670466,583.669048 684.551825,583.333456 L684.551825,583.333456 L514.551825,532.333456 C512.013922,531.572085 509.875965,530.02343 508.372485,528.002707 C506.869004,525.981983 506,523.48919 506,520.83954 L506,520.83954 L506,252.16046 C506,248.846751 507.343146,245.846751 509.514719,243.675178 C511.686292,241.503606 514.686292,240.16046 518,240.16046 Z" id="Rectangle" stroke="#FFFFFF" stroke-width="6"></path>
            <path d="M482.310218,277.793065 L652.310218,328.793065 C658.654978,330.696493 663,336.536336 663,343.16046 L663,611.83954 C663,620.123811 656.284271,626.83954 648,626.83954 C646.540132,626.83954 645.088082,626.626425 643.689782,626.206935 L473.689782,575.206935 C467.345022,573.303507 463,567.463664 463,560.83954 L463,292.16046 C463,283.876189 469.715729,277.16046 478,277.16046 C479.459868,277.16046 480.911918,277.373575 482.310218,277.793065 Z" id="Rectangle" fill="url(#linearGradient-3)"></path>
        </g>
    </g>
</svg>